<?xml version="1.0" encoding="utf-8"?>
<!-- Svg Vector Icons : http://www.onlinewebfonts.com/icon -->
<!DOCTYPE svg PUBLIC "-//W3C//DTD SVG 1.1//EN" "http://www.w3.org/Graphics/SVG/1.1/DTD/svg11.dtd">
<svg version="1.1" xmlns="http://www.w3.org/2000/svg" xmlns:xlink="http://www.w3.org/1999/xlink" x="0px" y="0px" viewBox="0 0 256 256" enable-background="new 0 0 256 256" xml:space="preserve">
<metadata> Svg Vector Icons : http://www.onlinewebfonts.com/icon </metadata>
<g><g><path fill="#000000" d="M113.7,138C76.9,138,47,108.1,47,71.3c0-36.8,29.9-66.7,66.7-66.7c36.8,0,66.7,29.9,66.7,66.7C180.4,108.1,150.5,138,113.7,138z M113.7,19.4c-28.6,0-51.8,23.2-51.8,51.8c0,28.6,23.2,51.8,51.8,51.8c28.6,0,51.8-23.2,51.8-51.8C165.5,42.7,142.3,19.4,113.7,19.4z"/><path fill="#000000" d="M48.1,250.4c-5.1,0-19.6-0.8-28.6-9.2c-10.2-9.5-9.7-25.1-9.4-29.7c3.8-45.7,50.8-84.3,102.5-84.3c21.2,0,41.7,6.3,59.1,18.3c2.3,1.6,4.6,3.3,6.9,5.1c3.2,2.6,3.7,7.3,1.1,10.5c-2.6,3.2-7.3,3.7-10.5,1.1c-1.9-1.5-3.9-3-5.9-4.4c-15-10.3-32.5-15.7-50.7-15.7c-44.3,0-84.5,32.4-87.7,70.7c-0.5,6.1,0.7,14,4.7,17.6c5.1,4.7,16.3,5.3,19.8,5.1h123.3c4.1,0,7.4,3.3,7.4,7.4s-3.3,7.5-7.5,7.5h-123C49.6,250.4,49,250.4,48.1,250.4z"/><path fill="#000000" d="M204.6,243.8c0,3.2-2.6,5.8-5.8,5.8l0,0c-3.2,0-5.8-2.6-5.8-5.8v-79c0-3.2,2.6-5.8,5.8-5.8l0,0c3.2,0,5.8,2.6,5.8,5.8V243.8z"/><path fill="#000000" d="M198.8,251.4c-4.2,0-7.7-3.5-7.7-7.7v-79c0-4.2,3.5-7.7,7.7-7.7c4.2,0,7.7,3.5,7.7,7.7v79C206.5,248,203.1,251.4,198.8,251.4z M198.8,160.8c-2.2,0-4,1.8-4,4v79c0,2.2,1.8,4,4,4c2.2,0,4-1.8,4-4v-79C202.8,162.6,201,160.8,198.8,160.8z"/><path fill="#000000" d="M238.3,198.4c3.2,0,5.8,2.6,5.8,5.8l0,0c0,3.2-2.6,5.8-5.8,5.8h-79c-3.2,0-5.8-2.6-5.8-5.8l0,0c0-3.2,2.6-5.8,5.8-5.8H238.3z"/><path fill="#000000" d="M238.3,211.9h-79c-4.2,0-7.7-3.4-7.7-7.7c0-4.2,3.5-7.7,7.7-7.7h79c4.2,0,7.7,3.5,7.7,7.7C246,208.5,242.6,211.9,238.3,211.9z M159.3,200.3c-2.2,0-4,1.8-4,4c0,2.2,1.8,4,4,4h79c2.2,0,4-1.8,4-4s-1.8-4-4-4H159.3z"/></g></g>
</svg>